<?xml version="1.0" standalone="no"?>
<!DOCTYPE svg PUBLIC "-//W3C//DTD SVG 20010904//EN"
 "http://www.w3.org/TR/2001/REC-SVG-20010904/DTD/svg10.dtd">
<svg version="1.0" xmlns="http://www.w3.org/2000/svg"
 width="256.000000pt" height="256.000000pt" viewBox="0 0 256.000000 256.000000"
 preserveAspectRatio="xMidYMid meet">
<metadata>
Created by potrace 1.14, written by Peter Selinger 2001-2017
</metadata>
<g transform="translate(0.000000,256.000000) scale(0.100000,-0.100000)"
fill="#000000" stroke="none">
<path d="M124 2441 c-2 -2 -4 -31 -4 -63 l0 -58 1163 2 1162 3 0 53 c1 29 -2
56 -5 60 -5 8 -2308 11 -2316 3z"/>
<path d="M262 1313 l3 -638 280 1 c296 1 356 8 447 55 78 40 151 135 163 212
32 198 -40 341 -202 403 l-45 17 48 18 c99 38 146 111 150 236 5 135 -39 219
-145 276 -86 47 -159 57 -444 57 l-257 0 2 -637z m535 484 c88 -25 136 -87
135 -171 -1 -101 -26 -142 -104 -176 -47 -20 -70 -23 -223 -24 l-170 -1 -1
180 c0 99 2 186 4 193 6 16 302 16 359 -1z m29 -526 c104 -28 157 -103 157
-222 -1 -118 -53 -192 -157 -220 -42 -12 -370 -20 -384 -10 -10 8 -10 454 0
462 14 10 342 2 384 -10z"/>
<path d="M1460 1312 l0 -638 83 0 c45 1 84 4 87 8 3 4 5 140 5 302 0 163 2
296 5 296 3 0 141 -136 307 -303 l301 -302 111 0 c61 0 111 1 111 3 0 2 -151
155 -336 340 l-335 337 89 85 c74 70 304 287 346 325 6 6 52 49 103 98 l91 87
-111 0 -112 -1 -76 -72 c-67 -64 -138 -131 -414 -390 -38 -36 -72 -64 -75 -62
-3 2 -5 121 -5 264 l0 261 -87 0 -88 0 0 -638z"/>
<path d="M122 188 l3 -63 1160 0 1160 0 0 63 1 62 -1163 0 -1164 0 3 -62z"/>
</g>
</svg>
